<svg width="15" height="14" viewBox="0 0 15 14" fill="none" xmlns="http://www.w3.org/2000/svg">
<path d="M10.6792 13.2702C10.0201 13.2702 9.32591 13.1127 8.60841 12.8093C7.90841 12.5118 7.20258 12.1035 6.51425 11.6077C5.82591 11.106 5.16675 10.5402 4.54841 9.92768C3.93008 9.30352 3.37008 8.64435 2.87425 7.96768C2.37258 7.26768 1.97008 6.57352 1.68425 5.89102C1.38091 5.17352 1.22925 4.47352 1.22925 3.81435C1.22925 3.35935 1.31091 2.92768 1.46841 2.52518C1.63758 2.10518 1.89425 1.72602 2.25008 1.39352C2.69925 0.956016 3.21258 0.728516 3.76091 0.728516C3.98841 0.728516 4.22175 0.781016 4.42008 0.874349C4.64758 0.979349 4.84008 1.13685 4.98008 1.34685L6.33341 3.25435C6.45591 3.42352 6.54925 3.58685 6.61341 3.75018C6.68925 3.92518 6.73008 4.10018 6.73008 4.26935C6.73008 4.49102 6.66591 4.70685 6.54341 4.91102C6.45591 5.06852 6.32175 5.23768 6.15258 5.40685L5.75591 5.82102C5.76175 5.83852 5.76758 5.85018 5.77341 5.86185C5.84341 5.98435 5.98341 6.19435 6.25175 6.50935C6.53175 6.83602 6.80591 7.12768 7.07425 7.40768C7.42425 7.75185 7.70425 8.01435 7.97258 8.23602C8.30508 8.51602 8.52091 8.65602 8.64925 8.72018L8.63758 8.74935L9.06341 8.32935C9.24425 8.14852 9.41925 8.01435 9.58841 7.92685C9.90925 7.72852 10.3176 7.69352 10.7259 7.86268C10.8776 7.92685 11.0409 8.01435 11.2159 8.13685L13.1526 9.51352C13.3626 9.65935 13.5259 9.84601 13.6192 10.0677C13.7067 10.2893 13.7476 10.4935 13.7476 10.6977C13.7476 10.9777 13.6834 11.2577 13.5609 11.5202C13.4384 11.7827 13.2867 12.0102 13.0942 12.2202C12.7617 12.5877 12.4001 12.8502 11.9801 13.0193C11.5776 13.1827 11.1401 13.2702 10.6792 13.2702ZM3.76091 1.60352C3.44008 1.60352 3.14258 1.74352 2.85675 2.02352C2.59425 2.27435 2.40175 2.54852 2.28508 2.84602C2.16258 3.14935 2.10425 3.47018 2.10425 3.81435C2.10425 4.35685 2.23258 4.94602 2.48925 5.55268C2.75175 6.17102 3.11925 6.81268 3.58591 7.45435C4.05258 8.09602 4.58341 8.72018 5.16675 9.30935C5.75008 9.88685 6.38008 10.4235 7.02758 10.896C7.65758 11.3568 8.30508 11.7302 8.94675 11.9985C9.94425 12.4243 10.8776 12.5235 11.6476 12.2027C11.9451 12.0802 12.2076 11.8935 12.4467 11.6252C12.5809 11.4793 12.6859 11.3218 12.7734 11.1352C12.8434 10.9893 12.8784 10.8377 12.8784 10.686C12.8784 10.5927 12.8609 10.4993 12.8142 10.3943C12.8026 10.3652 12.7617 10.2952 12.6509 10.2193L10.7142 8.84268C10.5976 8.76101 10.4926 8.70268 10.3934 8.66185C10.2417 8.60352 10.1426 8.59768 10.0142 8.67935C9.89758 8.73768 9.79258 8.82518 9.67591 8.94185L9.23258 9.37935C9.00508 9.60102 8.65508 9.65351 8.38675 9.55435L8.22925 9.48435C7.99008 9.35602 7.71008 9.15768 7.40091 8.89518C7.11508 8.65602 6.82341 8.38185 6.45008 8.01435C6.15841 7.71685 5.87841 7.40768 5.58091 7.06935C5.30675 6.74852 5.10841 6.47435 4.98591 6.24685L4.91008 6.07185C4.87508 5.94352 4.86341 5.86768 4.86341 5.78602C4.86341 5.57602 4.93925 5.38935 5.08508 5.24352L5.52258 4.78852C5.63925 4.67185 5.72675 4.56102 5.78508 4.46185C5.83175 4.38602 5.84925 4.32185 5.84925 4.26352C5.84925 4.21685 5.83175 4.14685 5.80258 4.07685C5.76758 3.97768 5.70341 3.87852 5.62175 3.76185L4.26841 1.84852C4.21008 1.76685 4.14008 1.70852 4.05258 1.66768C3.95925 1.62685 3.86008 1.60352 3.76091 1.60352ZM8.63758 8.75518L8.54425 9.15185L8.70175 8.74352C8.67841 8.73768 8.65508 8.74352 8.63758 8.75518Z" fill="#0097DC"/>
<path d="M10.4167 5.08581C10.3058 5.08581 10.195 5.04497 10.1075 4.95747L8.94084 3.79081C8.77167 3.62164 8.77167 3.34164 8.94084 3.17247C9.11001 3.00331 9.39001 3.00331 9.55917 3.17247L10.4167 4.02997L12.4408 2.01164C12.61 1.84247 12.89 1.84247 13.0592 2.01164C13.2283 2.18081 13.2283 2.46081 13.0592 2.62997L10.7258 4.96331C10.6383 5.03914 10.5275 5.08581 10.4167 5.08581Z" fill="#0097DC"/>
</svg>
