<svg width="15" height="14" viewBox="0 0 15 14" fill="none" xmlns="http://www.w3.org/2000/svg">
<path d="M7.49993 8.26503C6.25743 8.26503 5.24243 7.25586 5.24243 6.00753C5.24243 4.75919 6.25743 3.75586 7.49993 3.75586C8.74243 3.75586 9.75743 4.76503 9.75743 6.01336C9.75743 7.26169 8.74243 8.26503 7.49993 8.26503ZM7.49993 4.63086C6.7416 4.63086 6.11743 5.24919 6.11743 6.01336C6.11743 6.77753 6.73576 7.39586 7.49993 7.39586C8.2641 7.39586 8.88243 6.77753 8.88243 6.01336C8.88243 5.24919 8.25826 4.63086 7.49993 4.63086Z" fill="#0097DC"/>
<path d="M7.49998 13.276C6.63665 13.276 5.76748 12.9493 5.09081 12.3018C3.36998 10.6452 1.46831 8.00268 2.18581 4.85852C2.83331 2.00602 5.32415 0.728516 7.49998 0.728516C7.49998 0.728516 7.49998 0.728516 7.50581 0.728516C9.68165 0.728516 12.1725 2.00602 12.82 4.86435C13.5316 8.00852 11.63 10.6452 9.90915 12.3018C9.23248 12.9493 8.36331 13.276 7.49998 13.276ZM7.49998 1.60352C5.80248 1.60352 3.62081 2.50768 3.04331 5.05102C2.41331 7.79852 4.13998 10.1668 5.70331 11.666C6.71248 12.6402 8.29331 12.6402 9.30248 11.666C10.86 10.1668 12.5866 7.79852 11.9683 5.05102C11.385 2.50768 9.19748 1.60352 7.49998 1.60352Z" fill="#0097DC"/>
</svg>
