<svg width="1440" height="329" viewBox="0 0 1440 329" fill="none" xmlns="http://www.w3.org/2000/svg">
<g opacity="0.5">
<g opacity="0.57">
<path d="M0.0380859 161.48C186.578 209.426 450.464 6.56064 561.38 66.2404C675.85 127.842 818.787 289.756 963.247 268.319C1107.71 246.881 1206.59 125.72 1502 328.399" stroke="url(#paint0_linear_4178_14947)" stroke-width="0.25" stroke-miterlimit="10"/>
<path d="M6.85059 163.091C197.05 216.83 460.322 13.9648 573.483 68.2518C690.05 124.381 829.941 278.659 972.678 261.333C1115.41 244.007 1218.33 126.49 1499.68 319.531" stroke="url(#paint1_linear_4178_14947)" stroke-width="0.25" stroke-miterlimit="10"/>
<path d="M13.6641 164.708C207.538 224.255 470.181 21.3621 585.6 70.2699C704.251 120.913 841.096 267.569 982.123 254.355C1123.15 241.14 1230.09 127.28 1497.36 310.657" stroke="url(#paint2_linear_4178_14947)" stroke-width="0.25" stroke-miterlimit="10"/>
<path d="M20.4766 166.323C218.01 231.675 480.04 28.7564 597.716 72.2715C718.464 117.442 852.264 256.463 991.567 247.36C1130.88 238.256 1241.84 128.054 1495.05 301.78" stroke="url(#paint3_linear_4178_14947)" stroke-width="0.25" stroke-miterlimit="10"/>
<path d="M27.29 167.937C228.497 239.083 489.979 35.8702 609.832 74.2863C732.758 113.69 863.419 245.357 1001.01 240.378C1138.61 235.385 1253.6 128.84 1492.74 292.916" stroke="url(#paint4_linear_4178_14947)" stroke-width="0.25" stroke-miterlimit="10"/>
<path d="M34.1025 169.551C238.97 246.503 499.837 43.2102 621.948 76.3004C746.971 110.178 874.573 234.263 1010.46 233.395C1146.34 232.514 1265.37 129.613 1490.44 284.038" stroke="url(#paint5_linear_4178_14947)" stroke-width="0.25" stroke-miterlimit="10"/>
<path d="M40.915 171.165C249.456 253.923 509.682 50.5639 634.064 78.3014C761.171 106.653 885.74 223.156 1019.9 226.386C1154.06 229.616 1277.12 130.373 1488.13 275.147" stroke="url(#paint6_linear_4178_14947)" stroke-width="0.25" stroke-miterlimit="10"/>
<path d="M47.7285 172.784C259.93 261.336 519.528 57.9232 646.181 80.3215C775.359 103.16 896.895 212.068 1029.35 219.41C1161.8 226.751 1288.88 131.165 1485.82 266.288" stroke="url(#paint7_linear_4178_14947)" stroke-width="0.25" stroke-miterlimit="10"/>
<path d="M54.541 174.391C270.416 268.75 529.373 65.2834 658.297 82.3157C789.545 99.655 908.063 200.954 1038.79 212.407C1169.53 223.86 1300.63 131.918 1483.51 257.39" stroke="url(#paint8_linear_4178_14947)" stroke-width="0.25" stroke-miterlimit="10"/>
<path d="M61.3545 176.012C280.903 276.164 539.205 72.6706 670.414 84.3369C803.746 96.1901 919.218 189.868 1048.25 205.432C1177.27 220.996 1312.4 132.711 1481.21 248.533" stroke="url(#paint9_linear_4178_14947)" stroke-width="0.25" stroke-miterlimit="10"/>
<path d="M68.1533 177.629C291.362 283.587 549.023 80.067 682.516 86.354C817.919 92.7211 930.371 178.777 1057.68 198.452C1184.99 218.127 1324.16 133.5 1478.89 239.658" stroke="url(#paint10_linear_4178_14947)" stroke-width="0.25" stroke-miterlimit="10"/>
<path d="M74.9668 179.242C301.849 291.007 558.869 87.4734 694.633 88.3544C832.106 89.2621 941.526 167.656 1067.12 191.456C1192.72 215.242 1335.91 134.259 1476.59 230.779" stroke="url(#paint11_linear_4178_14947)" stroke-width="0.25" stroke-miterlimit="10"/>
<path d="M81.7793 180.853C312.322 298.411 568.701 94.8777 706.749 90.366C846.293 85.8143 952.694 156.56 1076.57 184.471C1200.44 212.382 1347.67 135.042 1474.28 221.912" stroke="url(#paint12_linear_4178_14947)" stroke-width="0.25" stroke-miterlimit="10"/>
<path d="M88.5928 182.472C322.809 305.835 578.546 102.302 718.865 92.3846C860.48 82.3735 963.849 145.47 1086.01 177.493C1208.18 209.515 1359.42 135.833 1471.97 213.039" stroke="url(#paint13_linear_4178_14947)" stroke-width="0.25" stroke-miterlimit="10"/>
<path d="M95.4053 184.085C333.282 313.255 588.391 109.722 730.981 94.3853C874.68 78.9281 975.003 134.363 1095.46 170.497C1215.9 206.63 1371.19 136.592 1469.66 204.161" stroke="url(#paint14_linear_4178_14947)" stroke-width="0.25" stroke-miterlimit="10"/>
<path d="M102.218 185.704C343.768 320.668 598.236 117.162 743.084 96.4051C888.853 75.5152 986.157 123.275 1104.89 163.52C1223.62 203.765 1382.93 137.384 1467.33 195.302" stroke="url(#paint15_linear_4178_14947)" stroke-width="0.25" stroke-miterlimit="10"/>
<path d="M109.031 187.313C354.255 328.083 608.096 124.589 755.201 98.4004C903.067 72.0777 997.312 112.162 1114.33 156.505C1231.35 200.848 1394.69 138.138 1465.02 186.392" stroke="url(#paint16_linear_4178_14947)" stroke-width="0.25" stroke-miterlimit="10"/>
<path d="M115.844 188.934C364.728 335.51 617.994 132.298 767.317 100.422C917.32 68.9205 1008.48 101.076 1123.78 149.53C1239.08 197.997 1406.45 138.918 1462.71 177.535" stroke="url(#paint17_linear_4178_14947)" stroke-width="0.25" stroke-miterlimit="10"/>
<path d="M122.657 190.549C375.215 342.919 627.853 139.693 779.433 102.438C931.521 65.4636 1019.63 89.9709 1133.22 142.549C1246.81 195.128 1418.2 139.706 1460.42 168.658" stroke="url(#paint18_linear_4178_14947)" stroke-width="0.25" stroke-miterlimit="10"/>
<path d="M129.47 192.165C385.688 350.341 637.711 147.088 791.549 104.441C945.734 61.9804 1030.8 78.8659 1142.67 135.556C1254.53 192.245 1429.97 140.481 1458.1 159.783" stroke="url(#paint19_linear_4178_14947)" stroke-width="0.25" stroke-miterlimit="10"/>
<path d="M136.282 193.777C396.174 357.759 647.556 154.48 803.665 106.453C959.934 58.52 1041.96 67.7703 1152.11 128.571C1262.27 189.372 1441.73 141.265 1455.79 150.916" stroke="url(#paint20_linear_4178_14947)" stroke-width="0.25" stroke-miterlimit="10"/>
<path d="M143.096 195.397C406.648 365.172 657.416 161.879 815.782 108.473C974.148 55.0672 1053.11 56.6823 1161.56 121.594C1270 186.507 1453.48 142.044 1453.48 142.044" stroke="url(#paint21_linear_4178_14947)" stroke-width="0.25" stroke-miterlimit="10"/>
<path d="M142.414 191.389C196.824 224.212 250.352 244.528 302.57 253.778C370.432 265.605 436.584 258.851 499.53 242.579C534.944 233.396 569.395 221.169 602.217 207.02C639.274 191.055 673.993 172.875 706.428 156.056C744.66 136.234 779.847 118.188 811.827 106.348C845.892 93.8138 877.178 83.3488 905.672 77.7025C958.732 67.1708 1001.05 68.9194 1042.61 78.3699C1078.61 86.6591 1114.21 101.222 1152.99 121.752C1154.92 122.766 1156.85 123.794 1158.8 124.848C1198.73 146.285 1247.34 152.466 1294.06 153.307C1375.68 154.788 1450.81 137.155 1454.14 137.569" stroke="url(#paint22_linear_4178_14947)" stroke-width="0.25" stroke-miterlimit="10"/>
<path d="M141.732 187.401C196.436 218.195 249.884 239.819 301.996 250.244C369.283 263.713 435.341 258.787 498.554 244.024C534.048 235.668 568.807 224.135 601.696 209.786C638.659 193.701 672.817 174.533 704.637 156.807C741.868 136.064 776.16 117.056 807.873 104.255C841.563 90.7869 873.437 78.8803 902.385 73.9014C955.552 64.7713 996.683 70.5377 1038.07 81.7502C1074.1 91.5077 1110.63 106.418 1150.09 125.265C1152.07 126.213 1154.05 127.134 1156.04 128.095C1196.9 147.637 1245.42 150.8 1292.48 150.253C1373.1 149.332 1448.14 132.246 1454.78 133.074" stroke="url(#paint23_linear_4178_14947)" stroke-width="0.25" stroke-miterlimit="10"/>
<path d="M141.052 183.392C196.049 212.158 249.444 235.01 301.422 246.703C368.162 261.72 434.086 258.729 497.566 245.461C533.154 237.946 568.193 227.081 601.176 212.545C638.059 196.327 671.629 176.198 702.835 157.537C739.063 135.873 772.433 115.824 803.893 102.142C837.169 87.6725 869.671 74.3778 899.073 70.093C952.347 62.3377 992.262 72.202 1033.5 85.123C1069.53 96.4156 1107.04 111.619 1147.18 128.772C1149.2 129.639 1151.23 130.48 1153.26 131.334C1195.06 148.981 1243.47 149.154 1290.89 147.205C1370.48 143.935 1445.44 127.343 1455.39 128.585" stroke="url(#paint24_linear_4178_14947)" stroke-width="0.25" stroke-miterlimit="10"/>
<path d="M140.384 179.398C195.675 206.134 249.003 230.214 300.874 243.175C367.053 259.714 432.871 258.673 496.618 246.913C532.285 240.239 567.632 230.054 600.681 215.304C637.484 198.953 670.48 177.863 701.058 158.281C736.285 135.722 768.746 114.672 799.952 100.043C832.841 84.6256 865.943 69.8758 895.8 66.2985C949.154 59.8914 987.894 73.8937 1028.96 88.5233C1065 101.351 1103.5 116.835 1144.28 132.305C1146.35 133.093 1148.42 133.84 1150.51 134.615C1193.26 150.365 1241.53 147.576 1289.33 144.199C1367.88 138.632 1442.77 122.481 1456.05 124.15" stroke="url(#paint25_linear_4178_14947)" stroke-width="0.25" stroke-miterlimit="10"/>
<path d="M139.702 175.398C195.287 200.092 248.548 225.4 300.299 239.643C365.93 257.703 431.615 258.611 495.642 248.372C531.403 242.539 567.031 233.022 600.173 218.085C636.883 201.6 669.304 179.563 699.268 159.033C733.492 135.58 765.045 113.529 795.997 97.9518C828.499 81.6003 862.189 65.3822 892.513 62.499C945.948 57.4267 983.499 75.5936 1024.42 91.9051C1060.47 106.281 1099.96 122.019 1141.38 135.821C1143.49 136.528 1145.62 137.182 1147.74 137.863C1191.43 151.718 1239.57 145.992 1287.77 141.147C1365.25 133.351 1440.1 117.574 1456.69 119.656" stroke="url(#paint26_linear_4178_14947)" stroke-width="0.25" stroke-miterlimit="10"/>
<path d="M139.021 171.404C194.9 194.07 248.094 220.579 299.725 236.103C364.794 255.672 430.372 258.541 494.667 249.812C530.521 244.806 566.443 235.97 599.652 220.833C636.281 204.214 668.128 181.242 697.477 159.765C730.713 135.444 761.345 112.365 792.043 95.8404C824.17 78.5412 858.435 60.8548 889.227 58.6924C942.741 54.9282 979.117 77.2865 1019.87 95.2798C1055.93 111.204 1096.42 127.182 1138.5 139.329C1140.66 139.956 1142.83 140.517 1144.99 141.104C1189.61 153.064 1237.62 144.428 1286.2 138.101C1362.62 128.13 1437.42 112.672 1457.34 115.169" stroke="url(#paint27_linear_4178_14947)" stroke-width="0.25" stroke-miterlimit="10"/>
<path d="M138.339 167.397C194.512 188.034 247.639 215.744 299.15 232.563C363.672 253.626 429.116 258.485 493.691 251.251C529.626 247.086 565.841 238.93 599.144 223.593C635.68 206.841 666.966 182.934 695.687 160.496C727.921 135.308 757.644 111.201 788.075 93.7286C819.815 75.495 854.668 56.3136 885.927 54.8854C939.508 52.4293 974.708 78.9789 1015.32 98.6541C1051.39 116.127 1092.88 132.332 1135.59 142.837C1137.79 143.384 1140.01 143.864 1142.23 144.358C1187.78 154.409 1235.64 142.917 1284.63 135.055C1359.97 122.974 1434.74 107.771 1457.98 110.681" stroke="url(#paint28_linear_4178_14947)" stroke-width="0.25" stroke-miterlimit="10"/>
<path d="M137.672 163.407C194.139 182.001 247.199 210.914 298.603 229.04C362.577 251.599 427.914 258.567 492.744 252.72C528.772 249.463 565.281 241.908 598.651 226.384C635.106 209.512 665.831 184.671 693.911 161.258C725.17 135.216 753.971 110.081 784.135 91.6476C815.488 72.493 850.928 51.8033 882.655 51.0959C936.303 49.9079 970.327 80.7155 1010.78 102.059C1046.85 121.094 1089.35 137.499 1132.7 146.375C1134.96 146.842 1137.22 147.229 1139.47 147.63C1185.96 155.786 1233.69 141.45 1283.07 132.039C1357.34 117.89 1432.08 102.9 1458.62 106.224" stroke="url(#paint29_linear_4178_14947)" stroke-width="0.25" stroke-miterlimit="10"/>
<path d="M136.99 159.411C193.751 175.977 246.745 206.077 298.028 225.498C361.442 249.525 426.658 258.508 491.768 254.157C527.89 251.741 564.68 244.853 598.143 229.129C634.518 212.123 664.669 186.375 692.134 161.988C722.405 135.104 750.284 108.915 780.194 89.5337C811.173 69.4447 847.201 48.2611 879.382 47.2867C933.083 45.6582 965.945 82.4192 1006.25 105.431C1042.32 126.028 1085.85 142.633 1129.82 149.894C1132.13 150.281 1134.42 150.575 1136.72 150.882C1184.16 157.142 1231.73 139.99 1281.5 128.991C1354.71 112.826 1429.41 97.9831 1459.28 101.747" stroke="url(#paint30_linear_4178_14947)" stroke-width="0.25" stroke-miterlimit="10"/>
<path d="M136.31 155.413C193.364 169.949 246.304 201.224 297.454 221.967C360.333 247.462 425.403 258.448 490.794 255.604C526.995 254.029 564.092 247.822 597.622 231.898C633.904 214.759 663.52 188.103 690.331 162.728C719.627 135.004 746.584 107.773 776.214 87.4307C806.805 66.4207 843.394 42.6876 876.069 43.4885C929.851 44.8099 961.524 84.147 1001.68 108.814C1037.75 130.986 1082.31 147.764 1126.9 153.411C1129.26 153.704 1131.61 153.918 1133.94 154.145C1182.32 158.51 1229.75 138.568 1279.91 125.967C1352.05 107.84 1426.71 93.1037 1459.91 97.2817" stroke="url(#paint31_linear_4178_14947)" stroke-width="0.25" stroke-miterlimit="10"/>
<path d="M135.628 151.414C192.976 163.908 245.863 196.357 296.893 218.435C359.224 245.398 424.174 258.386 489.831 257.065C526.127 256.331 563.518 250.791 597.128 234.666C633.33 217.394 662.385 189.843 688.554 163.481C716.888 134.929 742.91 106.657 772.273 85.3403C802.49 63.4093 839.653 38.1278 872.796 39.7029C926.645 42.2524 957.129 85.8876 997.151 112.224C1033.22 135.957 1078.81 152.909 1124.02 156.953C1126.42 157.167 1128.81 157.3 1131.21 157.421C1180.51 159.89 1227.81 137.198 1278.38 122.955C1349.47 102.92 1424.07 88.2369 1460.57 92.8287" stroke="url(#paint32_linear_4178_14947)" stroke-width="0.25" stroke-miterlimit="10"/>
<path d="M134.947 147.42C192.59 157.885 245.423 191.496 296.319 214.895C358.116 243.313 422.919 258.317 488.844 258.503C525.219 258.597 562.904 253.738 596.594 237.427C632.702 220.021 661.236 191.576 686.738 164.212C714.11 134.846 739.184 105.507 768.292 83.2151C798.136 60.363 835.86 33.5332 869.497 35.8691C923.413 39.6333 952.721 87.5799 992.583 115.571C1028.65 140.879 1075.27 157.978 1121.09 160.434C1123.55 160.568 1125.98 160.608 1128.41 160.635C1178.66 161.209 1225.84 135.794 1276.77 119.869C1346.83 97.9515 1421.35 83.2952 1461.19 88.3007" stroke="url(#paint33_linear_4178_14947)" stroke-width="0.25" stroke-miterlimit="10"/>
<path d="M134.279 143.412C192.216 151.848 244.995 186.62 295.758 211.354C357.021 241.214 421.676 258.246 487.882 259.941C524.351 260.876 562.329 256.698 596.1 240.186C632.128 222.647 660.128 193.321 684.975 164.956C711.411 134.775 735.524 104.368 764.351 81.1158C793.821 57.3427 832.12 28.9377 866.224 32.0746C920.22 37.0267 948.326 89.3249 988.055 118.958C1024.11 145.854 1071.76 163.074 1118.22 163.955C1120.72 164.008 1123.2 163.955 1125.68 163.901C1176.85 162.566 1223.94 134.482 1275.22 116.849C1344.26 93.1025 1418.7 78.4195 1461.84 83.8522" stroke="url(#paint34_linear_4178_14947)" stroke-width="0.25" stroke-miterlimit="10"/>
<path d="M133.598 139.423C191.828 145.83 244.568 181.75 295.183 207.833C355.912 239.121 420.434 258.062 486.906 261.412C523.469 263.107 561.728 259.677 595.578 242.965C631.526 225.305 658.992 195.085 683.171 165.706C708.659 134.711 731.836 103.25 760.384 79.0226C789.479 54.3418 828.352 24.3618 862.924 28.2862C916.987 34.4264 943.891 91.076 983.499 122.351C1019.54 150.823 1068.23 168.175 1115.31 167.481C1117.86 167.441 1120.38 167.308 1122.91 167.161C1175.03 163.93 1222.02 133.19 1273.65 113.808C1341.68 88.2729 1416.02 73.5232 1462.49 79.3697" stroke="url(#paint35_linear_4178_14947)" stroke-width="0.25" stroke-miterlimit="10"/>
<path d="M132.916 135.424C191.44 139.789 244.126 176.857 294.622 204.3C354.829 237.017 419.204 258.014 485.944 262.859C522.587 265.395 561.153 262.645 595.084 245.733C630.938 227.94 657.909 196.852 681.394 166.445C705.96 134.65 728.162 102.12 756.443 76.9188C785.164 51.317 824.625 19.7485 859.651 24.4738C913.794 31.7886 939.496 92.8031 978.957 125.733C1014.99 155.793 1064.71 173.253 1112.42 170.997C1115.01 170.877 1117.59 170.663 1120.16 170.409C1173.22 165.284 1220.13 131.927 1272.08 110.77C1339.15 83.4594 1413.35 68.6296 1463.14 74.8899" stroke="url(#paint36_linear_4178_14947)" stroke-width="0.25" stroke-miterlimit="10"/>
<path d="M132.234 131.43C191.052 133.766 243.712 171.969 294.047 200.761C353.734 234.905 417.948 257.944 484.969 264.298C521.705 267.675 560.552 265.593 594.563 248.48C630.337 230.554 656.8 198.598 679.59 167.177C703.235 134.594 724.475 100.983 752.461 74.8072C780.822 48.2977 820.844 15.1275 856.338 20.667C910.561 29.1297 935.047 94.5358 974.388 129.108C1010.4 160.756 1061.15 178.309 1109.5 174.518C1112.14 174.305 1114.76 174.011 1117.37 173.677C1171.36 166.656 1218.22 130.696 1270.5 107.737C1336.61 78.6915 1410.65 63.7416 1463.75 70.4157" stroke="url(#paint37_linear_4178_14947)" stroke-width="0.25" stroke-miterlimit="10"/>
<path d="M131.567 127.422C190.679 127.729 243.312 167.066 293.487 197.22C352.666 232.779 416.72 257.874 484.008 265.749C520.837 269.954 559.978 268.552 594.069 251.253C629.75 233.193 655.719 200.37 677.828 167.92C700.564 134.537 720.816 99.858 748.535 72.7078C776.534 45.2906 817.131 10.5053 853.079 16.8724C907.395 26.4831 930.653 96.2807 969.874 132.494C1005.86 165.731 1057.65 183.378 1106.64 178.038C1109.34 177.745 1112 177.358 1114.64 176.93C1169.57 168.014 1216.41 129.491 1268.96 104.703C1334.15 73.9492 1408.01 58.8524 1464.44 65.9403" stroke="url(#paint38_linear_4178_14947)" stroke-width="0.25" stroke-miterlimit="10"/>
<path d="M130.886 123.432C190.291 121.697 242.898 162.168 292.926 193.697C351.597 230.671 415.478 257.835 483.045 267.205C519.955 272.251 559.39 271.53 593.561 254.017C629.162 235.824 654.65 202.146 676.037 168.669C697.865 134.484 717.195 98.7913 744.58 70.6133C772.273 42.3285 813.391 5.87457 849.793 13.0692C904.202 23.8279 926.231 98.0304 965.331 135.886C1001.29 170.711 1054.11 188.451 1103.74 181.563C1106.48 181.19 1109.19 180.709 1111.89 180.188C1167.77 169.376 1214.59 128.304 1267.4 101.661C1331.69 69.2251 1405.34 53.9547 1465.09 61.4697" stroke="url(#paint39_linear_4178_14947)" stroke-width="0.25" stroke-miterlimit="10"/>
<path d="M130.204 119.43C189.904 115.666 242.483 157.259 292.351 190.149C350.528 228.525 414.235 257.757 482.07 268.636C519.073 274.522 558.802 274.469 593.053 256.769C628.574 238.442 653.581 203.897 674.247 169.392C695.193 134.42 713.508 97.6323 740.612 68.4933C767.931 39.2874 809.636 1.2184 846.493 9.25401C901.009 21.1339 921.728 99.8081 960.762 139.252C996.643 175.706 1050.55 193.486 1100.81 185.063C1103.61 184.596 1106.36 184.048 1109.1 183.434C1165.91 170.714 1212.76 127.132 1265.79 98.6201C1329.23 64.5155 1402.62 49.0583 1465.69 56.9871" stroke="url(#paint40_linear_4178_14947)" stroke-width="0.25" stroke-miterlimit="10"/>
<path d="M129.522 115.439C189.516 109.646 242.122 152.293 291.776 186.625C349.499 226.335 412.979 257.704 481.094 270.091C518.178 276.805 558.214 277.432 592.545 259.546C627.972 241.098 652.539 205.686 672.456 170.153C692.521 134.38 709.82 96.4976 736.658 66.4108C763.602 36.284 805.909 -3.40021 843.206 5.47633C897.829 18.4775 917.32 101.557 956.22 142.656C992.101 180.685 1046.98 198.478 1097.93 188.6C1100.76 188.039 1103.57 187.412 1106.34 186.705C1164.09 172.088 1211 126.01 1264.23 95.6033C1326.83 59.8435 1399.97 44.1861 1466.35 52.5287" stroke="url(#paint41_linear_4178_14947)" stroke-width="0.25" stroke-miterlimit="10"/>
<path d="M128.842 111.433C189.129 103.597 241.695 147.433 291.202 183.086C348.391 224.265 411.737 257.635 480.106 271.544C517.283 279.099 557.6 280.407 592.012 262.307C627.358 243.727 651.457 207.446 670.654 170.885C689.837 134.325 706.121 95.3481 732.691 64.3002C759.261 33.239 802.169 -8.06028 839.907 1.6572C894.651 15.7662 912.899 103.25 951.665 146.018C987.533 185.609 1043.44 203.575 1095.02 192.096C1157.75 178.147 1206.67 126.436 1262.65 92.545C1324.45 55.1434 1397.28 39.2724 1466.97 48.0288" stroke="url(#paint42_linear_4178_14947)" stroke-width="0.25" stroke-miterlimit="10"/>
</g>
</g>
<defs>
<linearGradient id="paint0_linear_4178_14947" x1="1504.69" y1="191.284" x2="0.0380859" y2="191.284" gradientUnits="userSpaceOnUse">
<stop stop-color="#0097DC"/>
<stop offset="1" stop-color="#15BEF0"/>
</linearGradient>
<linearGradient id="paint1_linear_4178_14947" x1="1502.35" y1="188.763" x2="6.85059" y2="188.763" gradientUnits="userSpaceOnUse">
<stop stop-color="#0097DC"/>
<stop offset="1" stop-color="#15BEF0"/>
</linearGradient>
<linearGradient id="paint2_linear_4178_14947" x1="1500.02" y1="186.177" x2="13.6641" y2="186.177" gradientUnits="userSpaceOnUse">
<stop stop-color="#0097DC"/>
<stop offset="1" stop-color="#15BEF0"/>
</linearGradient>
<linearGradient id="paint3_linear_4178_14947" x1="1497.7" y1="183.515" x2="20.4766" y2="183.515" gradientUnits="userSpaceOnUse">
<stop stop-color="#0097DC"/>
<stop offset="1" stop-color="#15BEF0"/>
</linearGradient>
<linearGradient id="paint4_linear_4178_14947" x1="1495.37" y1="180.761" x2="27.29" y2="180.761" gradientUnits="userSpaceOnUse">
<stop stop-color="#0097DC"/>
<stop offset="1" stop-color="#15BEF0"/>
</linearGradient>
<linearGradient id="paint5_linear_4178_14947" x1="1493.05" y1="177.953" x2="34.1025" y2="177.953" gradientUnits="userSpaceOnUse">
<stop stop-color="#0097DC"/>
<stop offset="1" stop-color="#15BEF0"/>
</linearGradient>
<linearGradient id="paint6_linear_4178_14947" x1="1490.73" y1="175.056" x2="40.915" y2="175.056" gradientUnits="userSpaceOnUse">
<stop stop-color="#0097DC"/>
<stop offset="1" stop-color="#15BEF0"/>
</linearGradient>
<linearGradient id="paint7_linear_4178_14947" x1="1488.4" y1="172.101" x2="47.7285" y2="172.101" gradientUnits="userSpaceOnUse">
<stop stop-color="#0097DC"/>
<stop offset="1" stop-color="#15BEF0"/>
</linearGradient>
<linearGradient id="paint8_linear_4178_14947" x1="1486.07" y1="169.028" x2="54.541" y2="169.028" gradientUnits="userSpaceOnUse">
<stop stop-color="#0097DC"/>
<stop offset="1" stop-color="#15BEF0"/>
</linearGradient>
<linearGradient id="paint9_linear_4178_14947" x1="1483.76" y1="165.897" x2="61.3545" y2="165.897" gradientUnits="userSpaceOnUse">
<stop stop-color="#0097DC"/>
<stop offset="1" stop-color="#15BEF0"/>
</linearGradient>
<linearGradient id="paint10_linear_4178_14947" x1="1481.42" y1="162.659" x2="68.1533" y2="162.659" gradientUnits="userSpaceOnUse">
<stop stop-color="#0097DC"/>
<stop offset="1" stop-color="#15BEF0"/>
</linearGradient>
<linearGradient id="paint11_linear_4178_14947" x1="1479.1" y1="159.31" x2="74.9668" y2="159.31" gradientUnits="userSpaceOnUse">
<stop stop-color="#0097DC"/>
<stop offset="1" stop-color="#15BEF0"/>
</linearGradient>
<linearGradient id="paint12_linear_4178_14947" x1="1476.78" y1="155.798" x2="81.7793" y2="155.798" gradientUnits="userSpaceOnUse">
<stop stop-color="#0097DC"/>
<stop offset="1" stop-color="#15BEF0"/>
</linearGradient>
<linearGradient id="paint13_linear_4178_14947" x1="1474.45" y1="156.45" x2="88.5928" y2="156.45" gradientUnits="userSpaceOnUse">
<stop stop-color="#0097DC"/>
<stop offset="1" stop-color="#15BEF0"/>
</linearGradient>
<linearGradient id="paint14_linear_4178_14947" x1="1472.12" y1="159.02" x2="95.4053" y2="159.02" gradientUnits="userSpaceOnUse">
<stop stop-color="#0097DC"/>
<stop offset="1" stop-color="#15BEF0"/>
</linearGradient>
<linearGradient id="paint15_linear_4178_14947" x1="1469.78" y1="161.222" x2="102.218" y2="161.222" gradientUnits="userSpaceOnUse">
<stop stop-color="#0097DC"/>
<stop offset="1" stop-color="#15BEF0"/>
</linearGradient>
<linearGradient id="paint16_linear_4178_14947" x1="1467.45" y1="162.989" x2="109.031" y2="162.989" gradientUnits="userSpaceOnUse">
<stop stop-color="#0097DC"/>
<stop offset="1" stop-color="#15BEF0"/>
</linearGradient>
<linearGradient id="paint17_linear_4178_14947" x1="1465.13" y1="164.413" x2="115.844" y2="164.413" gradientUnits="userSpaceOnUse">
<stop stop-color="#0097DC"/>
<stop offset="1" stop-color="#15BEF0"/>
</linearGradient>
<linearGradient id="paint18_linear_4178_14947" x1="1462.81" y1="165.307" x2="122.657" y2="165.307" gradientUnits="userSpaceOnUse">
<stop stop-color="#0097DC"/>
<stop offset="1" stop-color="#15BEF0"/>
</linearGradient>
<linearGradient id="paint19_linear_4178_14947" x1="1460.48" y1="165.791" x2="129.47" y2="165.791" gradientUnits="userSpaceOnUse">
<stop stop-color="#0097DC"/>
<stop offset="1" stop-color="#15BEF0"/>
</linearGradient>
<linearGradient id="paint20_linear_4178_14947" x1="1458.16" y1="165.929" x2="136.282" y2="165.929" gradientUnits="userSpaceOnUse">
<stop stop-color="#0097DC"/>
<stop offset="1" stop-color="#15BEF0"/>
</linearGradient>
<linearGradient id="paint21_linear_4178_14947" x1="1455.83" y1="165.78" x2="143.096" y2="165.78" gradientUnits="userSpaceOnUse">
<stop stop-color="#0097DC"/>
<stop offset="1" stop-color="#15BEF0"/>
</linearGradient>
<linearGradient id="paint22_linear_4178_14947" x1="1456.49" y1="164.797" x2="142.414" y2="164.797" gradientUnits="userSpaceOnUse">
<stop stop-color="#0097DC"/>
<stop offset="1" stop-color="#15BEF0"/>
</linearGradient>
<linearGradient id="paint23_linear_4178_14947" x1="1457.13" y1="163.416" x2="141.732" y2="163.416" gradientUnits="userSpaceOnUse">
<stop stop-color="#0097DC"/>
<stop offset="1" stop-color="#15BEF0"/>
</linearGradient>
<linearGradient id="paint24_linear_4178_14947" x1="1457.75" y1="161.71" x2="141.052" y2="161.71" gradientUnits="userSpaceOnUse">
<stop stop-color="#0097DC"/>
<stop offset="1" stop-color="#15BEF0"/>
</linearGradient>
<linearGradient id="paint25_linear_4178_14947" x1="1458.4" y1="159.849" x2="140.384" y2="159.849" gradientUnits="userSpaceOnUse">
<stop stop-color="#0097DC"/>
<stop offset="1" stop-color="#15BEF0"/>
</linearGradient>
<linearGradient id="paint26_linear_4178_14947" x1="1459.05" y1="157.935" x2="139.702" y2="157.935" gradientUnits="userSpaceOnUse">
<stop stop-color="#0097DC"/>
<stop offset="1" stop-color="#15BEF0"/>
</linearGradient>
<linearGradient id="paint27_linear_4178_14947" x1="1459.7" y1="156.033" x2="139.021" y2="156.033" gradientUnits="userSpaceOnUse">
<stop stop-color="#0097DC"/>
<stop offset="1" stop-color="#15BEF0"/>
</linearGradient>
<linearGradient id="paint28_linear_4178_14947" x1="1460.35" y1="154.203" x2="138.339" y2="154.203" gradientUnits="userSpaceOnUse">
<stop stop-color="#0097DC"/>
<stop offset="1" stop-color="#15BEF0"/>
</linearGradient>
<linearGradient id="paint29_linear_4178_14947" x1="1460.99" y1="152.511" x2="137.672" y2="152.511" gradientUnits="userSpaceOnUse">
<stop stop-color="#0097DC"/>
<stop offset="1" stop-color="#15BEF0"/>
</linearGradient>
<linearGradient id="paint30_linear_4178_14947" x1="1461.65" y1="150.852" x2="136.99" y2="150.852" gradientUnits="userSpaceOnUse">
<stop stop-color="#0097DC"/>
<stop offset="1" stop-color="#15BEF0"/>
</linearGradient>
<linearGradient id="paint31_linear_4178_14947" x1="1462.28" y1="149.374" x2="136.31" y2="149.374" gradientUnits="userSpaceOnUse">
<stop stop-color="#0097DC"/>
<stop offset="1" stop-color="#15BEF0"/>
</linearGradient>
<linearGradient id="paint32_linear_4178_14947" x1="1462.95" y1="148.005" x2="135.628" y2="148.005" gradientUnits="userSpaceOnUse">
<stop stop-color="#0097DC"/>
<stop offset="1" stop-color="#15BEF0"/>
</linearGradient>
<linearGradient id="paint33_linear_4178_14947" x1="1463.57" y1="146.716" x2="134.947" y2="146.716" gradientUnits="userSpaceOnUse">
<stop stop-color="#0097DC"/>
<stop offset="1" stop-color="#15BEF0"/>
</linearGradient>
<linearGradient id="paint34_linear_4178_14947" x1="1464.22" y1="145.541" x2="134.279" y2="145.541" gradientUnits="userSpaceOnUse">
<stop stop-color="#0097DC"/>
<stop offset="1" stop-color="#15BEF0"/>
</linearGradient>
<linearGradient id="paint35_linear_4178_14947" x1="1464.87" y1="144.45" x2="133.598" y2="144.45" gradientUnits="userSpaceOnUse">
<stop stop-color="#0097DC"/>
<stop offset="1" stop-color="#15BEF0"/>
</linearGradient>
<linearGradient id="paint36_linear_4178_14947" x1="1465.52" y1="143.408" x2="132.916" y2="143.408" gradientUnits="userSpaceOnUse">
<stop stop-color="#0097DC"/>
<stop offset="1" stop-color="#15BEF0"/>
</linearGradient>
<linearGradient id="paint37_linear_4178_14947" x1="1466.14" y1="142.416" x2="132.234" y2="142.416" gradientUnits="userSpaceOnUse">
<stop stop-color="#0097DC"/>
<stop offset="1" stop-color="#15BEF0"/>
</linearGradient>
<linearGradient id="paint38_linear_4178_14947" x1="1466.82" y1="141.475" x2="131.567" y2="141.475" gradientUnits="userSpaceOnUse">
<stop stop-color="#0097DC"/>
<stop offset="1" stop-color="#15BEF0"/>
</linearGradient>
<linearGradient id="paint39_linear_4178_14947" x1="1467.48" y1="140.572" x2="130.886" y2="140.572" gradientUnits="userSpaceOnUse">
<stop stop-color="#0097DC"/>
<stop offset="1" stop-color="#15BEF0"/>
</linearGradient>
<linearGradient id="paint40_linear_4178_14947" x1="1468.08" y1="139.678" x2="130.204" y2="139.678" gradientUnits="userSpaceOnUse">
<stop stop-color="#0097DC"/>
<stop offset="1" stop-color="#15BEF0"/>
</linearGradient>
<linearGradient id="paint41_linear_4178_14947" x1="1468.74" y1="138.837" x2="129.522" y2="138.837" gradientUnits="userSpaceOnUse">
<stop stop-color="#0097DC"/>
<stop offset="1" stop-color="#15BEF0"/>
</linearGradient>
<linearGradient id="paint42_linear_4178_14947" x1="1469.37" y1="138.001" x2="128.842" y2="138.001" gradientUnits="userSpaceOnUse">
<stop stop-color="#0097DC"/>
<stop offset="1" stop-color="#15BEF0"/>
</linearGradient>
</defs>
</svg>
