<svg width="31" height="41" viewBox="0 0 31 41" fill="none" xmlns="http://www.w3.org/2000/svg">
<path fill-rule="evenodd" clip-rule="evenodd" d="M30.2037 0.0166762C30.0964 0.0707281 30.0428 0.12478 29.9355 0.178832C27.6229 2.18476 24.7202 3.59011 21.9307 4.67114C18.7598 5.91434 15.5352 7.00138 12.4716 8.51483C12.418 8.51483 12.418 8.51483 12.418 8.51483C11.2318 9.05535 10.159 9.70998 9.03246 10.3586C9.03246 10.4127 9.03246 10.4127 8.97882 10.4127C8.76424 10.5748 8.49603 10.6829 8.28145 10.8451C8.17417 10.9532 8.12052 11.0072 8.01324 11.0613C7.95959 11.0613 7.95959 11.0613 7.95959 11.0613C5.81386 12.5747 4.09131 14.5807 2.80387 16.7968V16.8508C0.81311 20.2621 -0.0988253 24.2139 0.00846134 28.1657C0.00846134 28.5981 0.437607 28.8684 0.81311 28.7603C0.920397 28.7062 1.08133 28.6522 1.13497 28.49C3.60256 24.8625 6.1834 21.2891 9.72982 18.6886C10.3199 18.2562 10.9696 17.8238 11.5537 17.3913C11.5537 17.3913 11.5537 17.3913 11.6073 17.3373C12.3583 16.7968 13.1094 16.3103 13.8127 15.8238C13.8663 15.8238 13.8663 15.8238 13.8663 15.8238V15.7698C15.3683 14.7969 16.93 13.872 18.5393 13.1152C17.0909 14.1963 15.6902 15.2293 14.2955 16.3644C14.2955 16.3644 14.2955 16.3644 14.2418 16.4184C13.8127 16.7427 13.3835 17.1211 12.9544 17.4995C12.9544 17.4995 12.9544 17.4995 12.9007 17.4995C12.9007 17.4995 12.9007 17.4995 12.9007 17.5535C11.9888 18.3102 11.1246 19.067 10.2663 19.9378C8.3351 21.7816 6.61255 23.8355 5.15822 26.2198C2.63102 30.2797 0.968081 35.2104 1.2363 40.0811C1.2363 40.5676 1.6118 41 2.09459 41C2.20188 41 2.25552 40.9459 2.36281 40.9459C2.68467 40.8378 3.00653 40.4595 3.00653 40.0811C2.8456 37.6428 3.2211 35.2645 4.02575 32.9883C4.07939 32.9883 4.13304 32.9343 4.18668 32.8802C7.57217 30.7121 11.9828 30.1716 15.5769 28.3338C20.2558 25.8955 23.8499 21.7816 26.1626 17.019C28.6898 11.8721 28.9043 6.1906 30.9487 0.881506C31.1693 0.340987 30.6328 -0.0914275 30.2037 0.0166762Z" fill="#0D4E91"/>
</svg>
