<svg width="1440" height="342" viewBox="0 0 1440 342" fill="none" xmlns="http://www.w3.org/2000/svg">
<path d="M-59 168.3C134.515 218.039 408.269 7.58744 523.334 69.4989C642.084 133.404 790.366 301.373 940.229 279.134C1090.09 256.895 1192.67 131.203 1499.13 341.461" stroke="url(#paint0_linear_3016_7041)" stroke-width="0.3" stroke-miterlimit="10"/>
<path d="M-51.9336 169.97C145.379 225.72 418.495 15.2677 535.888 71.5848C656.814 129.813 801.937 289.86 950.011 271.887C1098.09 253.913 1204.85 132.001 1496.72 332.261" stroke="url(#paint1_linear_3016_7041)" stroke-width="0.3" stroke-miterlimit="10"/>
<path d="M-44.8633 171.652C156.26 233.425 428.725 22.9456 548.46 73.6822C671.548 126.219 813.511 278.36 959.812 264.651C1106.11 250.942 1217.05 132.824 1494.32 323.059" stroke="url(#paint2_linear_3016_7041)" stroke-width="0.3" stroke-miterlimit="10"/>
<path d="M-37.7969 173.321C167.124 241.117 438.952 30.6101 561.028 75.7525C686.292 122.612 825.095 266.832 969.608 257.388C1114.13 247.944 1229.24 133.621 1491.92 313.844" stroke="url(#paint3_linear_3016_7041)" stroke-width="0.3" stroke-miterlimit="10"/>
<path d="M-30.7305 174.997C178.001 248.803 449.261 37.9911 573.596 77.8437C701.119 118.721 836.666 255.311 979.405 250.146C1122.14 244.967 1241.43 134.438 1489.52 304.649" stroke="url(#paint4_linear_3016_7041)" stroke-width="0.3" stroke-miterlimit="10"/>
<path d="M-23.6621 176.675C188.867 256.505 459.489 45.6103 586.166 79.9378C715.865 115.082 848.238 243.807 989.203 242.907C1130.17 241.993 1253.64 135.244 1487.14 295.444" stroke="url(#paint5_linear_3016_7041)" stroke-width="0.3" stroke-miterlimit="10"/>
<path d="M-16.5938 178.353C199.746 264.206 469.703 53.2419 598.736 82.0167C730.597 111.428 859.824 232.288 999.001 235.639C1138.18 238.99 1265.84 136.035 1484.74 286.223" stroke="url(#paint6_linear_3016_7041)" stroke-width="0.3" stroke-miterlimit="10"/>
<path d="M-9.52734 180.026C210.609 271.889 479.915 60.8693 611.304 84.1051C745.313 107.798 871.394 220.778 1008.8 228.394C1146.2 236.01 1278.03 136.85 1482.34 277.026" stroke="url(#paint7_linear_3016_7041)" stroke-width="0.3" stroke-miterlimit="10"/>
<path d="M-2.45898 181.693C221.489 279.58 490.129 68.5049 623.874 86.1741C760.031 104.162 882.98 209.249 1018.6 221.13C1154.23 233.011 1290.23 137.631 1479.95 267.796" stroke="url(#paint8_linear_3016_7041)" stroke-width="0.3" stroke-miterlimit="10"/>
<path d="M4.60938 183.373C232.368 287.269 500.33 76.1665 636.444 88.2691C774.763 100.566 894.553 197.746 1028.41 213.892C1162.25 230.038 1302.44 138.452 1477.57 258.605" stroke="url(#paint9_linear_3016_7041)" stroke-width="0.3" stroke-miterlimit="10"/>
<path d="M11.6641 185.055C243.22 294.976 510.516 83.8451 649.001 90.3672C789.467 96.9724 906.125 186.246 1038.19 206.657C1170.26 227.068 1314.64 139.276 1475.15 249.404" stroke="url(#paint10_linear_3016_7041)" stroke-width="0.3" stroke-miterlimit="10"/>
<path d="M18.7305 186.727C254.097 302.671 520.728 91.5265 661.569 92.4405C804.183 93.3821 917.695 174.707 1047.99 199.397C1178.28 224.073 1326.83 140.061 1472.77 240.192" stroke="url(#paint11_linear_3016_7041)" stroke-width="0.3" stroke-miterlimit="10"/>
<path d="M25.7969 188.393C264.961 310.347 530.927 99.2027 674.137 94.5223C818.899 89.8003 929.28 163.191 1057.79 192.146C1186.29 221.101 1339.02 140.869 1470.37 230.988" stroke="url(#paint12_linear_3016_7041)" stroke-width="0.3" stroke-miterlimit="10"/>
<path d="M32.8672 190.075C275.842 318.053 541.143 106.908 686.709 96.6197C833.619 86.2342 940.854 151.691 1067.59 184.91C1194.32 218.13 1351.22 141.693 1467.98 221.786" stroke="url(#paint13_linear_3016_7041)" stroke-width="0.3" stroke-miterlimit="10"/>
<path d="M39.9336 191.75C286.706 325.751 551.355 114.606 699.277 98.6957C848.349 82.6604 952.424 140.168 1077.38 177.653C1202.33 215.138 1363.43 142.481 1465.58 212.576" stroke="url(#paint14_linear_3016_7041)" stroke-width="0.3" stroke-miterlimit="10"/>
<path d="M47 193.429C297.583 333.439 561.567 122.323 711.831 100.79C863.052 79.1192 963.994 128.665 1087.17 170.415C1210.34 212.164 1375.61 143.302 1463.17 203.385" stroke="url(#paint15_linear_3016_7041)" stroke-width="0.3" stroke-miterlimit="10"/>
<path d="M54.0684 195.1C308.463 341.134 571.795 130.031 724.401 102.863C877.797 75.5557 975.567 117.139 1096.96 163.14C1218.36 209.141 1387.81 144.086 1460.77 194.144" stroke="url(#paint16_linear_3016_7041)" stroke-width="0.3" stroke-miterlimit="10"/>
<path d="M61.1367 196.783C319.328 348.841 582.065 138.029 736.971 104.961C892.585 72.2815 987.153 105.64 1106.76 155.906C1226.37 206.185 1400 144.897 1458.37 184.957" stroke="url(#paint17_linear_3016_7041)" stroke-width="0.3" stroke-miterlimit="10"/>
<path d="M68.2031 198.46C330.205 356.528 592.291 145.702 749.539 107.054C907.315 68.6967 998.723 94.1204 1116.56 148.665C1234.39 203.21 1412.2 145.716 1455.99 175.75" stroke="url(#paint18_linear_3016_7041)" stroke-width="0.3" stroke-miterlimit="10"/>
<path d="M75.2715 200.131C341.071 364.222 602.519 153.369 762.11 109.127C922.06 65.0783 1010.31 82.5952 1126.36 141.405C1242.41 200.215 1424.4 146.515 1453.59 166.538" stroke="url(#paint19_linear_3016_7041)" stroke-width="0.3" stroke-miterlimit="10"/>
<path d="M82.3398 201.81C351.95 371.925 612.733 161.044 774.68 111.221C936.792 61.4954 1021.88 71.0916 1136.16 134.166C1250.43 197.241 1436.6 147.335 1451.19 157.347" stroke="url(#paint20_linear_3016_7041)" stroke-width="0.3" stroke-miterlimit="10"/>
<path d="M89.4062 203.481C362.814 379.606 622.959 168.711 787.248 113.308C951.536 57.9044 1033.45 59.5799 1145.95 126.92C1258.45 194.259 1448.79 148.134 1448.79 148.134" stroke="url(#paint21_linear_3016_7041)" stroke-width="0.3" stroke-miterlimit="10"/>
<path d="M88.6992 199.331C145.143 233.382 200.673 254.457 254.845 264.053C325.244 276.322 393.87 269.315 459.169 252.436C495.907 242.909 531.648 230.224 565.697 215.546C604.14 198.985 640.157 180.125 673.805 162.677C713.467 142.114 749.969 123.392 783.145 111.11C818.484 98.1069 850.939 87.2506 880.499 81.3931C935.544 70.4676 979.446 72.2816 1022.56 82.0855C1059.91 90.6847 1096.84 105.792 1137.07 127.089C1139.06 128.142 1141.07 129.208 1143.1 130.302C1184.52 152.541 1234.95 158.952 1283.41 159.825C1368.08 161.362 1446.02 143.069 1449.47 143.498" stroke="url(#paint22_linear_3016_7041)" stroke-width="0.3" stroke-miterlimit="10"/>
<path d="M87.9922 195.189C144.741 227.135 200.188 249.568 254.249 260.383C324.052 274.355 392.581 269.245 458.157 253.93C494.979 245.261 531.037 233.297 565.156 218.411C603.502 201.725 638.937 181.841 671.947 163.451C710.57 141.933 746.144 122.214 779.043 108.934C813.993 94.9623 847.059 82.6105 877.09 77.4454C932.245 67.9738 974.914 73.9559 1017.85 85.5877C1055.22 95.7101 1093.12 111.178 1134.06 130.73C1136.11 131.713 1138.16 132.669 1140.23 133.666C1182.62 153.938 1232.95 157.22 1281.78 156.652C1365.41 155.697 1443.25 137.972 1450.14 138.831" stroke="url(#paint23_linear_3016_7041)" stroke-width="0.3" stroke-miterlimit="10"/>
<path d="M87.2871 191.036C144.341 220.877 199.732 244.584 253.654 256.714C322.89 272.293 391.28 269.191 457.134 255.427C494.052 247.63 530.402 236.359 564.618 221.279C602.88 204.455 637.706 183.573 670.078 164.214C707.662 141.74 742.279 120.941 774.915 106.748C809.436 91.7371 843.153 77.9452 873.655 73.5002C928.921 65.4549 970.329 75.6881 1013.11 89.0923C1050.48 100.807 1089.4 116.579 1131.04 134.373C1133.13 135.273 1135.24 136.146 1137.35 137.032C1180.71 155.338 1230.93 155.518 1280.13 153.496C1362.7 150.104 1440.45 132.891 1450.78 134.179" stroke="url(#paint24_linear_3016_7041)" stroke-width="0.3" stroke-miterlimit="10"/>
<path d="M86.5938 186.89C143.953 214.626 199.274 239.607 253.086 253.052C321.739 270.209 390.018 269.129 456.149 256.93C493.151 250.006 529.819 239.44 564.104 224.139C602.284 207.176 636.513 185.297 668.234 164.983C704.778 141.581 738.454 119.744 770.826 104.567C804.945 88.5737 839.286 73.2724 870.259 69.5613C925.608 62.9146 965.797 77.4405 1008.4 92.6172C1045.79 105.924 1085.73 121.987 1128.03 138.036C1130.18 138.853 1132.33 139.629 1134.49 140.432C1178.84 156.772 1228.92 153.878 1278.51 150.374C1359.99 144.6 1437.68 127.845 1451.46 129.576" stroke="url(#paint25_linear_3016_7041)" stroke-width="0.3" stroke-miterlimit="10"/>
<path d="M85.8867 182.738C143.551 208.356 198.803 234.61 252.489 249.385C320.575 268.121 388.715 269.062 455.137 258.442C492.236 252.39 529.195 242.517 563.577 227.022C601.66 209.921 635.293 187.059 666.377 165.761C701.882 141.432 734.615 118.556 766.724 102.396C800.441 85.4329 835.391 68.6084 866.849 65.6174C922.282 60.3554 961.237 79.2016 1003.68 96.1231C1041.09 111.037 1082.05 127.363 1125.03 141.681C1127.22 142.415 1129.42 143.093 1131.62 143.799C1176.94 158.173 1226.88 152.232 1276.88 147.206C1357.26 139.119 1434.91 122.751 1452.12 124.912" stroke="url(#paint26_linear_3016_7041)" stroke-width="0.3" stroke-miterlimit="10"/>
<path d="M85.1797 178.596C143.148 202.109 198.332 229.61 251.893 245.714C319.396 266.014 387.426 268.991 454.125 259.935C491.321 254.743 528.585 245.576 563.037 229.873C601.036 212.633 634.074 188.801 664.52 166.521C698.999 141.291 730.776 117.349 762.622 100.206C795.951 82.26 831.497 63.9123 863.44 61.669C918.956 57.7641 956.692 80.9584 998.973 99.6246C1036.38 116.144 1078.38 132.72 1122.03 145.321C1124.28 145.972 1126.52 146.553 1128.77 147.163C1175.05 159.57 1224.86 150.61 1275.26 144.047C1354.53 133.703 1432.14 117.668 1452.8 120.257" stroke="url(#paint27_linear_3016_7041)" stroke-width="0.3" stroke-miterlimit="10"/>
<path d="M84.4727 174.439C142.746 195.847 197.86 224.594 251.297 242.041C318.232 263.893 386.123 268.933 453.114 261.428C490.392 257.107 527.961 248.647 562.51 232.736C600.412 215.358 632.868 190.557 662.663 167.28C696.103 141.15 726.937 116.141 758.506 98.0152C791.433 79.0997 827.589 59.2011 860.017 57.7194C915.602 55.1715 952.118 82.7139 994.247 103.125C1031.66 121.251 1074.71 138.062 1119.01 148.96C1121.3 149.527 1123.6 150.026 1125.9 150.538C1173.16 160.965 1222.81 149.043 1273.63 140.887C1351.79 128.355 1429.35 112.583 1453.46 115.601" stroke="url(#paint28_linear_3016_7041)" stroke-width="0.3" stroke-miterlimit="10"/>
<path d="M83.7812 170.296C142.36 189.585 197.404 219.579 250.73 238.384C317.097 261.786 384.877 269.014 452.131 262.949C489.506 259.57 527.381 251.732 561.999 235.628C599.817 218.125 631.691 192.355 660.821 168.067C693.249 141.051 723.127 114.976 754.419 95.8528C786.944 75.9819 823.71 54.5185 856.623 53.7846C912.277 52.5522 947.574 84.5118 989.537 106.654C1026.95 126.4 1071.05 143.418 1116.02 152.627C1118.36 153.112 1120.7 153.513 1123.05 153.929C1171.27 162.389 1220.79 147.517 1272.01 137.755C1349.06 123.077 1426.6 107.526 1454.13 110.974" stroke="url(#paint29_linear_3016_7041)" stroke-width="0.3" stroke-miterlimit="10"/>
<path d="M83.0742 166.153C141.958 183.338 196.933 214.564 250.134 234.711C315.919 259.637 383.575 268.956 451.119 264.442C488.592 261.935 526.757 254.79 561.472 238.478C599.208 220.836 630.485 194.125 658.978 168.826C690.38 140.937 719.302 113.769 750.331 93.6624C782.468 72.8221 819.843 50.8464 853.228 49.8355C908.937 48.1461 943.028 86.2818 984.838 110.155C1022.26 131.521 1067.42 148.747 1113.03 156.28C1115.42 156.682 1117.81 156.986 1120.19 157.305C1169.4 163.799 1218.75 146.005 1270.39 134.595C1346.33 117.826 1423.82 102.428 1454.81 106.333" stroke="url(#paint30_linear_3016_7041)" stroke-width="0.3" stroke-miterlimit="10"/>
<path d="M82.3672 162.005C141.555 177.085 196.475 209.53 249.538 231.048C314.768 257.497 382.272 268.893 450.107 265.944C487.663 264.31 526.147 257.871 560.931 241.351C598.57 223.571 629.293 195.918 657.107 169.594C687.497 140.833 715.463 112.584 746.201 91.4809C777.936 69.6852 815.893 45.0646 849.79 45.8955C905.583 47.2664 938.441 88.0745 980.099 113.664C1017.52 136.665 1063.75 154.071 1110 159.928C1112.44 160.233 1114.88 160.455 1117.31 160.69C1167.49 165.218 1216.7 144.53 1268.74 131.458C1343.57 112.653 1421.02 97.366 1455.46 101.7" stroke="url(#paint31_linear_3016_7041)" stroke-width="0.3" stroke-miterlimit="10"/>
<path d="M81.6602 157.852C141.153 170.813 196.018 204.476 248.956 227.379C313.618 255.351 380.996 268.824 449.109 267.453C486.762 266.692 525.551 260.945 560.418 244.218C597.974 226.299 628.115 197.718 655.263 170.37C684.656 140.75 711.652 111.422 742.112 89.3074C773.459 66.5562 812.013 40.3293 846.395 41.9633C902.257 44.6082 933.881 89.8751 975.401 117.196C1012.82 141.817 1060.12 159.403 1107.01 163.598C1109.51 163.82 1111.99 163.958 1114.47 164.083C1165.62 166.645 1214.69 143.104 1267.14 128.329C1340.9 107.544 1418.28 92.3123 1456.15 97.0758" stroke="url(#paint32_linear_3016_7041)" stroke-width="0.3" stroke-miterlimit="10"/>
<path d="M80.9531 153.714C140.751 164.57 195.56 199.438 248.36 223.712C312.468 253.193 379.693 268.758 448.083 268.951C485.819 269.048 524.913 264.008 559.863 247.086C597.322 229.029 626.923 199.521 653.378 171.134C681.774 140.67 707.785 110.233 737.982 87.1081C768.941 63.4015 808.077 35.5683 842.972 37.9916C898.903 41.8966 929.308 91.6362 970.661 120.674C1008.08 146.929 1056.44 164.667 1103.98 167.215C1106.53 167.353 1109.05 167.395 1111.57 167.423C1163.69 168.018 1212.64 141.653 1265.48 125.133C1338.15 102.396 1415.47 87.1912 1456.79 92.384" stroke="url(#paint33_linear_3016_7041)" stroke-width="0.3" stroke-miterlimit="10"/>
<path d="M80.2617 149.561C140.365 158.312 195.118 194.385 247.779 220.044C311.333 251.02 378.406 268.689 447.087 270.448C484.92 271.417 524.319 267.083 559.352 249.954C596.728 231.759 625.774 201.336 651.55 171.91C678.976 140.601 703.99 109.057 733.896 84.9352C764.467 60.273 804.198 30.8059 839.578 34.06C895.593 39.1974 924.75 93.4513 965.964 124.192C1003.37 152.095 1052.8 169.958 1101 170.872C1103.59 170.927 1106.17 170.872 1108.73 170.816C1161.82 169.432 1210.67 140.297 1263.87 122.005C1335.49 97.3701 1412.71 82.138 1457.47 87.7739" stroke="url(#paint34_linear_3016_7041)" stroke-width="0.3" stroke-miterlimit="10"/>
<path d="M79.5547 145.412C139.962 152.059 194.674 189.322 247.183 216.38C310.182 248.838 377.117 268.488 446.075 271.963C484.005 273.722 523.695 270.163 558.811 252.826C596.104 234.506 624.596 203.156 649.679 172.678C676.121 140.524 700.165 107.886 729.78 82.7532C759.963 57.1495 800.29 26.0484 836.155 30.1195C892.239 36.4893 920.149 95.2574 961.238 127.702C998.628 157.238 1049.14 175.24 1097.98 174.52C1100.62 174.478 1103.24 174.34 1105.86 174.187C1159.94 170.836 1208.68 138.946 1262.24 118.839C1332.82 92.3495 1409.94 77.0482 1458.14 83.1133" stroke="url(#paint35_linear_3016_7041)" stroke-width="0.3" stroke-miterlimit="10"/>
<path d="M78.8477 141.27C139.56 145.798 194.217 184.252 246.601 212.723C309.059 246.662 375.842 268.444 445.077 273.471C483.09 276.102 523.099 273.249 558.298 255.705C595.494 237.246 623.473 204.996 647.836 173.452C673.321 140.467 696.353 106.721 725.691 80.5774C755.486 54.0182 796.423 21.2692 832.759 26.1712C888.926 33.7595 915.589 97.0557 956.526 131.217C993.902 162.401 1045.48 180.514 1094.98 178.173C1097.67 178.049 1100.35 177.827 1103.01 177.564C1158.05 172.247 1206.72 137.642 1260.62 115.694C1330.18 87.3626 1407.17 71.9782 1458.82 78.4726" stroke="url(#paint36_linear_3016_7041)" stroke-width="0.3" stroke-miterlimit="10"/>
<path d="M78.1406 137.126C139.158 139.55 193.787 179.181 246.004 209.049C307.923 244.471 374.539 268.371 444.065 274.963C482.175 278.466 522.475 276.306 557.758 258.554C594.87 239.957 622.323 206.806 645.965 174.21C670.494 140.408 692.528 105.541 721.561 78.386C750.982 50.8852 792.501 16.4745 829.322 22.2211C885.572 31.0004 910.974 98.8523 951.787 134.717C989.148 167.549 1041.8 185.758 1091.95 181.826C1094.69 181.604 1097.41 181.299 1100.11 180.953C1156.13 173.669 1204.74 136.365 1258.97 112.547C1327.55 82.4155 1404.37 66.9065 1459.45 73.8302" stroke="url(#paint37_linear_3016_7041)" stroke-width="0.3" stroke-miterlimit="10"/>
<path d="M77.4473 132.967C138.77 133.286 193.371 174.094 245.422 205.375C306.814 242.264 373.264 268.297 443.067 276.467C481.274 280.829 521.878 279.375 557.244 261.429C594.26 242.694 621.2 208.643 644.135 174.98C667.722 140.348 688.731 104.373 717.486 76.2071C746.533 47.7647 788.648 11.6785 825.94 18.2837C882.287 28.2538 906.415 100.662 947.102 138.229C984.436 172.709 1038.16 191.015 1088.98 185.477C1091.78 185.172 1094.54 184.77 1097.28 184.327C1154.27 175.077 1202.85 135.114 1257.37 109.399C1325 77.4949 1401.62 61.8336 1460.16 69.1865" stroke="url(#paint38_linear_3016_7041)" stroke-width="0.3" stroke-miterlimit="10"/>
<path d="M76.7402 128.828C138.367 127.028 192.941 169.013 244.84 201.72C305.705 240.077 371.974 268.257 442.069 277.978C480.359 283.212 521.268 282.464 556.718 264.296C593.65 245.422 620.091 210.486 642.278 175.756C664.922 140.293 684.975 103.266 713.384 74.0339C742.112 44.6914 784.767 6.87433 822.531 14.3381C878.975 25.499 901.827 102.476 942.39 141.747C979.696 177.875 1034.49 196.278 1085.97 189.133C1088.82 188.745 1091.63 188.247 1094.43 187.707C1152.4 176.49 1200.97 133.882 1255.75 106.243C1322.45 72.5938 1398.85 56.7524 1460.84 64.5485" stroke="url(#paint39_linear_3016_7041)" stroke-width="0.3" stroke-miterlimit="10"/>
<path d="M76.0352 124.677C137.967 120.772 192.513 163.92 244.245 198.04C304.598 237.851 370.687 268.177 441.059 279.462C479.446 285.569 520.66 285.513 556.193 267.152C593.041 248.14 618.984 212.303 640.422 176.507C662.152 140.227 681.152 102.064 709.27 71.8352C737.61 41.5372 780.875 2.04461 819.109 10.3807C875.665 22.7048 897.159 104.321 937.652 145.24C974.875 183.057 1030.79 201.502 1082.94 192.764C1085.84 192.279 1088.69 191.712 1091.53 191.075C1150.47 177.878 1199.07 132.667 1254.09 103.089C1319.9 67.7087 1396.04 51.6735 1461.46 59.8988" stroke="url(#paint40_linear_3016_7041)" stroke-width="0.3" stroke-miterlimit="10"/>
<path d="M75.3281 120.536C137.565 114.526 192.139 158.768 243.649 194.383C303.53 235.579 369.384 268.12 440.047 280.971C478.517 287.936 520.05 288.587 555.666 270.031C592.418 250.894 617.903 214.157 638.565 177.296C659.38 140.185 677.327 100.886 705.168 69.6743C733.119 38.4208 777.008 -2.74733 815.7 6.46115C872.366 19.9485 892.585 106.134 932.94 148.77C970.163 188.221 1027.09 206.68 1079.95 196.433C1082.89 195.851 1085.8 195.2 1088.68 194.466C1148.59 179.304 1197.24 131.503 1252.47 99.9584C1317.41 62.8614 1393.28 46.6185 1462.14 55.273" stroke="url(#paint41_linear_3016_7041)" stroke-width="0.3" stroke-miterlimit="10"/>
<path d="M74.6211 116.381C137.163 108.253 191.695 153.727 243.053 190.713C302.38 233.432 368.095 268.051 439.021 282.48C477.589 290.317 519.413 291.674 555.111 272.897C591.78 253.622 616.78 215.985 636.694 178.057C656.594 140.129 673.487 99.6948 701.051 67.4859C728.615 35.2631 773.128 -7.58052 812.277 2.50035C869.068 17.137 887.998 107.892 928.214 152.259C965.423 193.331 1023.42 211.969 1076.93 200.06C1142 185.59 1192.75 131.945 1250.83 96.7869C1314.94 57.9866 1390.49 41.5222 1462.79 50.606" stroke="url(#paint42_linear_3016_7041)" stroke-width="0.3" stroke-miterlimit="10"/>
<defs>
<linearGradient id="paint0_linear_3016_7041" x1="1501.92" y1="199.218" x2="-59" y2="199.218" gradientUnits="userSpaceOnUse">
<stop stop-color="#0097DC"/>
<stop offset="1" stop-color="#15BEF0"/>
</linearGradient>
<linearGradient id="paint1_linear_3016_7041" x1="1499.49" y1="196.603" x2="-51.9336" y2="196.603" gradientUnits="userSpaceOnUse">
<stop stop-color="#0097DC"/>
<stop offset="1" stop-color="#15BEF0"/>
</linearGradient>
<linearGradient id="paint2_linear_3016_7041" x1="1497.08" y1="193.924" x2="-44.8633" y2="193.924" gradientUnits="userSpaceOnUse">
<stop stop-color="#0097DC"/>
<stop offset="1" stop-color="#15BEF0"/>
</linearGradient>
<linearGradient id="paint3_linear_3016_7041" x1="1494.66" y1="191.156" x2="-37.7969" y2="191.156" gradientUnits="userSpaceOnUse">
<stop stop-color="#0097DC"/>
<stop offset="1" stop-color="#15BEF0"/>
</linearGradient>
<linearGradient id="paint4_linear_3016_7041" x1="1492.25" y1="188.3" x2="-30.7305" y2="188.3" gradientUnits="userSpaceOnUse">
<stop stop-color="#0097DC"/>
<stop offset="1" stop-color="#15BEF0"/>
</linearGradient>
<linearGradient id="paint5_linear_3016_7041" x1="1489.85" y1="185.391" x2="-23.6621" y2="185.391" gradientUnits="userSpaceOnUse">
<stop stop-color="#0097DC"/>
<stop offset="1" stop-color="#15BEF0"/>
</linearGradient>
<linearGradient id="paint6_linear_3016_7041" x1="1487.43" y1="182.389" x2="-16.5938" y2="182.389" gradientUnits="userSpaceOnUse">
<stop stop-color="#0097DC"/>
<stop offset="1" stop-color="#15BEF0"/>
</linearGradient>
<linearGradient id="paint7_linear_3016_7041" x1="1485.02" y1="179.317" x2="-9.52734" y2="179.317" gradientUnits="userSpaceOnUse">
<stop stop-color="#0097DC"/>
<stop offset="1" stop-color="#15BEF0"/>
</linearGradient>
<linearGradient id="paint8_linear_3016_7041" x1="1482.6" y1="176.129" x2="-2.45898" y2="176.129" gradientUnits="userSpaceOnUse">
<stop stop-color="#0097DC"/>
<stop offset="1" stop-color="#15BEF0"/>
</linearGradient>
<linearGradient id="paint9_linear_3016_7041" x1="1480.21" y1="172.879" x2="4.60937" y2="172.879" gradientUnits="userSpaceOnUse">
<stop stop-color="#0097DC"/>
<stop offset="1" stop-color="#15BEF0"/>
</linearGradient>
<linearGradient id="paint10_linear_3016_7041" x1="1477.78" y1="169.526" x2="11.6641" y2="169.526" gradientUnits="userSpaceOnUse">
<stop stop-color="#0097DC"/>
<stop offset="1" stop-color="#15BEF0"/>
</linearGradient>
<linearGradient id="paint11_linear_3016_7041" x1="1475.38" y1="166.05" x2="18.7305" y2="166.05" gradientUnits="userSpaceOnUse">
<stop stop-color="#0097DC"/>
<stop offset="1" stop-color="#15BEF0"/>
</linearGradient>
<linearGradient id="paint12_linear_3016_7041" x1="1472.96" y1="162.401" x2="25.7969" y2="162.401" gradientUnits="userSpaceOnUse">
<stop stop-color="#0097DC"/>
<stop offset="1" stop-color="#15BEF0"/>
</linearGradient>
<linearGradient id="paint13_linear_3016_7041" x1="1470.55" y1="163.081" x2="32.8672" y2="163.081" gradientUnits="userSpaceOnUse">
<stop stop-color="#0097DC"/>
<stop offset="1" stop-color="#15BEF0"/>
</linearGradient>
<linearGradient id="paint14_linear_3016_7041" x1="1468.13" y1="165.748" x2="39.9336" y2="165.748" gradientUnits="userSpaceOnUse">
<stop stop-color="#0097DC"/>
<stop offset="1" stop-color="#15BEF0"/>
</linearGradient>
<linearGradient id="paint15_linear_3016_7041" x1="1465.7" y1="168.031" x2="47" y2="168.031" gradientUnits="userSpaceOnUse">
<stop stop-color="#0097DC"/>
<stop offset="1" stop-color="#15BEF0"/>
</linearGradient>
<linearGradient id="paint16_linear_3016_7041" x1="1463.29" y1="169.867" x2="54.0684" y2="169.867" gradientUnits="userSpaceOnUse">
<stop stop-color="#0097DC"/>
<stop offset="1" stop-color="#15BEF0"/>
</linearGradient>
<linearGradient id="paint17_linear_3016_7041" x1="1460.88" y1="171.345" x2="61.1367" y2="171.345" gradientUnits="userSpaceOnUse">
<stop stop-color="#0097DC"/>
<stop offset="1" stop-color="#15BEF0"/>
</linearGradient>
<linearGradient id="paint18_linear_3016_7041" x1="1458.47" y1="172.274" x2="68.2031" y2="172.274" gradientUnits="userSpaceOnUse">
<stop stop-color="#0097DC"/>
<stop offset="1" stop-color="#15BEF0"/>
</linearGradient>
<linearGradient id="paint19_linear_3016_7041" x1="1456.06" y1="172.771" x2="75.2715" y2="172.771" gradientUnits="userSpaceOnUse">
<stop stop-color="#0097DC"/>
<stop offset="1" stop-color="#15BEF0"/>
</linearGradient>
<linearGradient id="paint20_linear_3016_7041" x1="1453.65" y1="172.921" x2="82.3398" y2="172.921" gradientUnits="userSpaceOnUse">
<stop stop-color="#0097DC"/>
<stop offset="1" stop-color="#15BEF0"/>
</linearGradient>
<linearGradient id="paint21_linear_3016_7041" x1="1451.23" y1="172.758" x2="89.4062" y2="172.758" gradientUnits="userSpaceOnUse">
<stop stop-color="#0097DC"/>
<stop offset="1" stop-color="#15BEF0"/>
</linearGradient>
<linearGradient id="paint22_linear_3016_7041" x1="1451.91" y1="171.745" x2="88.6992" y2="171.745" gradientUnits="userSpaceOnUse">
<stop stop-color="#0097DC"/>
<stop offset="1" stop-color="#15BEF0"/>
</linearGradient>
<linearGradient id="paint23_linear_3016_7041" x1="1452.58" y1="170.307" x2="87.9922" y2="170.307" gradientUnits="userSpaceOnUse">
<stop stop-color="#0097DC"/>
<stop offset="1" stop-color="#15BEF0"/>
</linearGradient>
<linearGradient id="paint24_linear_3016_7041" x1="1453.22" y1="168.544" x2="87.2871" y2="168.544" gradientUnits="userSpaceOnUse">
<stop stop-color="#0097DC"/>
<stop offset="1" stop-color="#15BEF0"/>
</linearGradient>
<linearGradient id="paint25_linear_3016_7041" x1="1453.9" y1="166.61" x2="86.5937" y2="166.61" gradientUnits="userSpaceOnUse">
<stop stop-color="#0097DC"/>
<stop offset="1" stop-color="#15BEF0"/>
</linearGradient>
<linearGradient id="paint26_linear_3016_7041" x1="1454.57" y1="164.623" x2="85.8867" y2="164.623" gradientUnits="userSpaceOnUse">
<stop stop-color="#0097DC"/>
<stop offset="1" stop-color="#15BEF0"/>
</linearGradient>
<linearGradient id="paint27_linear_3016_7041" x1="1455.25" y1="162.65" x2="85.1797" y2="162.65" gradientUnits="userSpaceOnUse">
<stop stop-color="#0097DC"/>
<stop offset="1" stop-color="#15BEF0"/>
</linearGradient>
<linearGradient id="paint28_linear_3016_7041" x1="1455.92" y1="160.751" x2="84.4727" y2="160.751" gradientUnits="userSpaceOnUse">
<stop stop-color="#0097DC"/>
<stop offset="1" stop-color="#15BEF0"/>
</linearGradient>
<linearGradient id="paint29_linear_3016_7041" x1="1456.59" y1="158.992" x2="83.7812" y2="158.992" gradientUnits="userSpaceOnUse">
<stop stop-color="#0097DC"/>
<stop offset="1" stop-color="#15BEF0"/>
</linearGradient>
<linearGradient id="paint30_linear_3016_7041" x1="1457.27" y1="157.273" x2="83.0742" y2="157.273" gradientUnits="userSpaceOnUse">
<stop stop-color="#0097DC"/>
<stop offset="1" stop-color="#15BEF0"/>
</linearGradient>
<linearGradient id="paint31_linear_3016_7041" x1="1457.92" y1="155.741" x2="82.3672" y2="155.741" gradientUnits="userSpaceOnUse">
<stop stop-color="#0097DC"/>
<stop offset="1" stop-color="#15BEF0"/>
</linearGradient>
<linearGradient id="paint32_linear_3016_7041" x1="1458.62" y1="154.315" x2="81.6602" y2="154.315" gradientUnits="userSpaceOnUse">
<stop stop-color="#0097DC"/>
<stop offset="1" stop-color="#15BEF0"/>
</linearGradient>
<linearGradient id="paint33_linear_3016_7041" x1="1459.26" y1="152.984" x2="80.9531" y2="152.984" gradientUnits="userSpaceOnUse">
<stop stop-color="#0097DC"/>
<stop offset="1" stop-color="#15BEF0"/>
</linearGradient>
<linearGradient id="paint34_linear_3016_7041" x1="1459.94" y1="151.77" x2="80.2617" y2="151.77" gradientUnits="userSpaceOnUse">
<stop stop-color="#0097DC"/>
<stop offset="1" stop-color="#15BEF0"/>
</linearGradient>
<linearGradient id="paint35_linear_3016_7041" x1="1460.61" y1="150.628" x2="79.5547" y2="150.628" gradientUnits="userSpaceOnUse">
<stop stop-color="#0097DC"/>
<stop offset="1" stop-color="#15BEF0"/>
</linearGradient>
<linearGradient id="paint36_linear_3016_7041" x1="1461.29" y1="149.553" x2="78.8477" y2="149.553" gradientUnits="userSpaceOnUse">
<stop stop-color="#0097DC"/>
<stop offset="1" stop-color="#15BEF0"/>
</linearGradient>
<linearGradient id="paint37_linear_3016_7041" x1="1461.93" y1="148.523" x2="78.1406" y2="148.523" gradientUnits="userSpaceOnUse">
<stop stop-color="#0097DC"/>
<stop offset="1" stop-color="#15BEF0"/>
</linearGradient>
<linearGradient id="paint38_linear_3016_7041" x1="1462.64" y1="147.546" x2="77.4473" y2="147.546" gradientUnits="userSpaceOnUse">
<stop stop-color="#0097DC"/>
<stop offset="1" stop-color="#15BEF0"/>
</linearGradient>
<linearGradient id="paint39_linear_3016_7041" x1="1463.32" y1="146.609" x2="76.7402" y2="146.609" gradientUnits="userSpaceOnUse">
<stop stop-color="#0097DC"/>
<stop offset="1" stop-color="#15BEF0"/>
</linearGradient>
<linearGradient id="paint40_linear_3016_7041" x1="1463.95" y1="145.682" x2="76.0352" y2="145.682" gradientUnits="userSpaceOnUse">
<stop stop-color="#0097DC"/>
<stop offset="1" stop-color="#15BEF0"/>
</linearGradient>
<linearGradient id="paint41_linear_3016_7041" x1="1464.63" y1="144.809" x2="75.3281" y2="144.809" gradientUnits="userSpaceOnUse">
<stop stop-color="#0097DC"/>
<stop offset="1" stop-color="#15BEF0"/>
</linearGradient>
<linearGradient id="paint42_linear_3016_7041" x1="1465.28" y1="143.943" x2="74.6211" y2="143.943" gradientUnits="userSpaceOnUse">
<stop stop-color="#0097DC"/>
<stop offset="1" stop-color="#15BEF0"/>
</linearGradient>
</defs>
</svg>
